<svg xmlns="http://www.w3.org/2000/svg" viewBox="0 0 24 24"><defs><radialGradient id="g" cx="35%" cy="28%" r="65%"><stop offset="0%" stop-color="#FF70C0"/><stop offset="100%" stop-color="#880044"/></radialGradient></defs><path fill="url(#g)" d="M12,2C8,2,5,4,5,7c-2,0-3,2-3,4s1,3,3,3c0,3,2,5,5,6v2h4v-2c3-1,5-3,5-6,2,0,3-1,3-3s-1-4-3-4C19,4,16,2,12,2z"/><path fill="white" opacity="0.2" d="M12,2C8,2,5,4,5,7c-2,0-3,2-3,4s1,2,2,2c0,0,3-2,8-2s8,2,8,2c1,0,2-1,2-2s-1-4-3-4C19,4,16,2,12,2z"/><line stroke="white" stroke-width="0.8" opacity="0.5" x1="12" y1="3" x2="12" y2="20"/></svg>
