<svg xmlns="http://www.w3.org/2000/svg" viewBox="0 0 24 24"><defs><radialGradient id="g" cx="35%" cy="28%" r="65%"><stop offset="0%" stop-color="#B0B8C8"/><stop offset="100%" stop-color="#3A4050"/></radialGradient></defs><rect fill="url(#g)" x="4" y="1" width="16" height="22" rx="3"/><rect x="4.5" y="1.5" width="15" height="6" rx="2" fill="white" opacity="0.2"/><rect fill="#70DDFF" x="6" y="3" width="12" height="5" rx="1"/><g fill="#FFFFFF" opacity="0.8"><rect x="6" y="10" width="3" height="2.5" rx="0.5"/><rect x="10.5" y="10" width="3" height="2.5" rx="0.5"/><rect x="15" y="10" width="3" height="2.5" rx="0.5"/><rect x="6" y="14" width="3" height="2.5" rx="0.5"/><rect x="10.5" y="14" width="3" height="2.5" rx="0.5"/><rect x="15" y="14" width="3" height="2.5" rx="0.5"/><rect x="6" y="18" width="3" height="2.5" rx="0.5"/><rect x="10.5" y="18" width="3" height="2.5" rx="0.5"/></g><rect fill="#FFE040" x="15" y="18" width="3" height="2.5" rx="0.5"/></svg>
