<svg xmlns="http://www.w3.org/2000/svg" viewBox="0 0 24 24"><defs><radialGradient id="g" cx="35%" cy="28%" r="65%"><stop offset="0%" stop-color="#FF7070"/><stop offset="100%" stop-color="#AA0000"/></radialGradient><radialGradient id="g2" cx="35%" cy="28%" r="65%"><stop offset="0%" stop-color="#FFFFFF"/><stop offset="100%" stop-color="#E0E0E0"/></radialGradient></defs><rect fill="url(#g)" x="2" y="2" width="20" height="7" rx="2"/><rect fill="url(#g2)" x="2" y="7" width="20" height="15" rx="0 0 2 2"/><rect x="2.5" y="2.5" width="19" height="3" rx="1.5" fill="white" opacity="0.3"/><g fill="#AA0000" opacity="0.7"><rect x="5" y="10" width="3" height="2" rx="0.5"/><rect x="10.5" y="10" width="3" height="2" rx="0.5"/><rect x="16" y="10" width="3" height="2" rx="0.5"/><rect x="5" y="14" width="3" height="2" rx="0.5"/><rect x="10.5" y="14" width="3" height="2" rx="0.5"/><rect x="16" y="14" width="3" height="2" rx="0.5"/><rect x="5" y="18" width="3" height="2" rx="0.5"/></g><rect fill="url(#g)" x="6" y="1" width="2.5" height="3" rx="1"/><rect fill="url(#g)" x="15.5" y="1" width="2.5" height="3" rx="1"/></svg>
