<svg xmlns="http://www.w3.org/2000/svg" viewBox="0 0 24 24"><defs><radialGradient id="g" cx="35%" cy="28%" r="65%"><stop offset="0%" stop-color="#70FF88"/><stop offset="100%" stop-color="#008830"/></radialGradient></defs><rect fill="url(#g)" x="4" y="4" width="16" height="16" rx="2"/><rect x="4.5" y="4.5" width="15" height="5" rx="1.5" fill="white" opacity="0.3"/><circle fill="#FFE040" cx="12" cy="12" r="3"/><g fill="#004400"><rect x="7" y="1" width="1.5" height="3"/><rect x="11" y="1" width="1.5" height="3"/><rect x="15" y="1" width="1.5" height="3"/><rect x="7" y="20" width="1.5" height="3"/><rect x="11" y="20" width="1.5" height="3"/><rect x="15" y="20" width="1.5" height="3"/><rect x="1" y="7" width="3" height="1.5"/><rect x="1" y="11" width="3" height="1.5"/><rect x="1" y="15" width="3" height="1.5"/><rect x="20" y="7" width="3" height="1.5"/><rect x="20" y="11" width="3" height="1.5"/><rect x="20" y="15" width="3" height="1.5"/></g></svg>
