<svg xmlns="http://www.w3.org/2000/svg" viewBox="0 0 24 24"><defs><radialGradient id="g" cx="35%" cy="28%" r="65%"><stop offset="0%" stop-color="#FF70C0"/><stop offset="100%" stop-color="#AA0066"/></radialGradient><radialGradient id="g2" cx="35%" cy="28%" r="65%"><stop offset="0%" stop-color="#FFE040"/><stop offset="100%" stop-color="#CC8800"/></radialGradient></defs><rect fill="url(#g)" x="2" y="8" width="20" height="5" rx="1.5"/><rect fill="url(#g)" x="4" y="13" width="16" height="10" rx="1"/><rect fill="url(#g2)" x="10" y="8" width="4" height="15"/><rect fill="url(#g2)" x="2" y="10" width="20" height="2"/><path fill="url(#g2)" d="M12,8C10,8,7,6,7,4s2-3,3-2,2,4,2,6z"/><path fill="url(#g2)" d="M12,8C14,8,17,6,17,4s-2-3-3-2-2,4-2,6z"/><rect x="2.5" y="8.5" width="19" height="2.5" rx="1" fill="white" opacity="0.25"/></svg>
