<svg xmlns="http://www.w3.org/2000/svg" viewBox="0 0 24 24"><defs><radialGradient id="g" cx="35%" cy="28%" r="65%"><stop offset="0%" stop-color="#70DDFF"/><stop offset="100%" stop-color="#006699"/></radialGradient></defs><path fill="url(#g)" d="M3,2H21a1,1,0,0,1,1,1V21a1,1,0,0,1-1,1H3a1,1,0,0,1-1-1V3A1,1,0,0,1,3,2z"/><path fill="#FFFFFF" opacity="0.9" d="M2,14h6l2,3h4l2-3h6v8a1,1,0,0,1-1,1H3a1,1,0,0,1-1-1V14z"/><rect x="2.5" y="2.5" width="19" height="4" rx="1" fill="white" opacity="0.25"/></svg>
