<svg xmlns="http://www.w3.org/2000/svg" viewBox="0 0 24 24"><defs><radialGradient id="g" cx="35%" cy="28%" r="65%"><stop offset="0%" stop-color="#B0B8C8"/><stop offset="100%" stop-color="#556070"/></radialGradient></defs><rect fill="url(#g)" x="1" y="5" width="22" height="14" rx="3"/><rect x="1.5" y="5.5" width="21" height="4" rx="2" fill="white" opacity="0.25"/><g fill="#FFFFFF" opacity="0.8"><rect x="3" y="7.5" width="2" height="2" rx="0.5"/><rect x="6.5" y="7.5" width="2" height="2" rx="0.5"/><rect x="10" y="7.5" width="2" height="2" rx="0.5"/><rect x="13.5" y="7.5" width="2" height="2" rx="0.5"/><rect x="17" y="7.5" width="4" height="2" rx="0.5"/><rect x="3" y="11" width="3" height="2" rx="0.5"/><rect x="7.5" y="11" width="2" height="2" rx="0.5"/><rect x="11" y="11" width="2" height="2" rx="0.5"/><rect x="14.5" y="11" width="2" height="2" rx="0.5"/><rect x="18" y="11" width="3" height="2" rx="0.5"/><rect x="6" y="14.5" width="12" height="2" rx="0.5"/></g></svg>
