<svg xmlns="http://www.w3.org/2000/svg" viewBox="0 0 24 24"><defs><radialGradient id="g" cx="35%" cy="28%" r="65%"><stop offset="0%" stop-color="#FFE8A0"/><stop offset="100%" stop-color="#CC9944"/></radialGradient></defs><path fill="url(#g)" d="M12,2A10,10,0,0,0,2,12a10,10,0,0,0,10,10c1,0,2-0.8,2-2a2,2,0,0,0-0.5-1.3,2,2,0,0,1,1.5-3.2H18a6,6,0,0,0,6-6A10,10,0,0,0,12,2z"/><circle fill="#FF5555" cx="8" cy="8" r="2"/><circle fill="#55CC55" cx="14" cy="7" r="2"/><circle fill="#5588FF" cx="6" cy="14" r="2"/><circle fill="#FFAA00" cx="17" cy="11" r="2"/><ellipse cx="9" cy="6" rx="5" ry="3" fill="white" opacity="0.15"/></svg>
