<svg xmlns="http://www.w3.org/2000/svg" viewBox="0 0 24 24"><defs><radialGradient id="g" cx="35%" cy="28%" r="65%"><stop offset="0%" stop-color="#70FF88"/><stop offset="100%" stop-color="#008830"/></radialGradient></defs><path fill="url(#g)" d="M6.6,10.8C8.4,14.4,11.2,17,14,18.8l2.4-2.4c0.3-0.3,0.7-0.4,1.1-0.2C19,16.8,20.6,17,22,17c0.6,0,1,0.4,1,1v4c0,0.6-0.4,1-1,1C10.4,23,1,13.6,1,2c0-0.6,0.4-1,1-1h4c0.6,0,1,0.4,1,1c0,1.5,0.2,3,0.7,4.4c0.1,0.4,0,0.8-0.2,1.1L6.6,10.8z"/><ellipse cx="9" cy="7" rx="5" ry="4" fill="white" opacity="0.2"/></svg>
