<svg xmlns="http://www.w3.org/2000/svg" viewBox="0 0 24 24">
  <defs>
    <linearGradient id="body" x1="0" y1="0" x2="0" y2="1">
      <stop offset="0%" stop-color="#FFC840"/>
      <stop offset="100%" stop-color="#8A4D00"/>
    </linearGradient>
    <linearGradient id="gloss" x1="0" y1="0" x2="0" y2="1">
      <stop offset="0%" stop-color="#FFFFFF" stop-opacity="0.7"/>
      <stop offset="100%" stop-color="#FFFFFF" stop-opacity="0"/>
    </linearGradient>
  </defs>
  <!-- Gear body with 8 teeth -->
  <path d="M12 1.5 L13.4 4 L16.3 3.2 L17.2 5.9 L19.9 6.6 L19.3 9.5 L21.8 11 L20.4 13.5 L21.8 16
           L19.3 17.5 L19.9 20.3 L17.2 21 L16.3 23.8 L13.4 23 L12 25.5
           L10.6 23 L7.7 23.8 L6.8 21 L4.1 20.3 L4.7 17.5 L2.2 16 L3.6 13.5 L2.2 11
           L4.7 9.5 L4.1 6.6 L6.8 5.9 L7.7 3.2 L10.6 4 Z"
        transform="translate(0 -1.75)"
        fill="url(#body)" stroke="#3A2000" stroke-width="0.5" stroke-linejoin="round"/>
  <!-- Center hole -->
  <circle cx="12" cy="12" r="3.2" fill="#3A2000"/>
  <circle cx="12" cy="12" r="2.4" fill="#FFE390"/>
  <!-- Gloss -->
  <ellipse cx="12" cy="6.5" rx="6" ry="2.5" fill="url(#gloss)"/>
</svg>
