<svg xmlns="http://www.w3.org/2000/svg" viewBox="0 0 24 24">
  <defs>
    <radialGradient id="g" cx="35%" cy="28%" r="65%"><stop offset="0%" stop-color="#D8EAFF"/><stop offset="100%" stop-color="#3A5A88"/></radialGradient>
        <radialGradient id="gc" cx="35%" cy="28%" r="65%"><stop offset="0%" stop-color="#80FFFF"/><stop offset="100%" stop-color="#0099BB"/></radialGradient>
  </defs>
  <path fill="url(#g)" d="M12 8a4 4 0 1 0 0 8 4 4 0 0 0 0-8zM21.2 13.5l-1.3-.75c.04-.25.08-.5.08-.75s-.04-.5-.08-.75l1.3-.75a.75.75 0 0 0 .27-1.03l-1.5-2.6a.75.75 0 0 0-1.03-.27l-1.3.75a6.5 6.5 0 0 0-1.3-.75V5a.75.75 0 0 0-.75-.75h-3A.75.75 0 0 0 12 5v1.35a6.5 6.5 0 0 0-1.3.75l-1.3-.75a.75.75 0 0 0-1.03.27l-1.5 2.6a.75.75 0 0 0 .27 1.03l1.3.75c-.04.25-.08.5-.08.75s.04.5.08.75l-1.3.75a.75.75 0 0 0-.27 1.03l1.5 2.6a.75.75 0 0 0 1.03.27l1.3-.75c.4.28.83.52 1.3.75V19a.75.75 0 0 0 .75.75h3a.75.75 0 0 0 .75-.75v-1.35c.47-.23.9-.47 1.3-.75l1.3.75a.75.75 0 0 0 1.03-.27l1.5-2.6a.75.75 0 0 0-.27-1.03z"/>
  <circle fill="url(#gc)" cx="12" cy="12" r="2.5"/>
</svg>