<svg xmlns="http://www.w3.org/2000/svg" viewBox="0 0 24 24"><defs><radialGradient id="g" cx="35%" cy="28%" r="65%"><stop offset="0%" stop-color="#FFE040"/><stop offset="100%" stop-color="#CC8800"/></radialGradient></defs><rect fill="#E0E8FF" x="1" y="3" width="8" height="18" rx="1"/><rect fill="url(#g)" x="15" y="3" width="8" height="18" rx="1"/><rect x="15.5" y="3.5" width="7" height="5" rx="1" fill="white" opacity="0.25"/><polygon fill="url(#g)" points="9,10 15,12 9,14"/><g fill="#8090B0" opacity="0.6"><rect x="2.5" y="5" width="5" height="1" rx="0.5"/><rect x="2.5" y="7.5" width="4" height="1" rx="0.5"/><rect x="2.5" y="10" width="5.5" height="1" rx="0.5"/><rect x="2.5" y="12.5" width="3" height="1" rx="0.5"/><rect x="2.5" y="15" width="5" height="1" rx="0.5"/></g><g fill="#AA7700" opacity="0.6"><rect x="16.5" y="6" width="5" height="1.5" rx="0.5"/><rect x="16.5" y="9" width="4" height="1.5" rx="0.5"/><rect x="16.5" y="12" width="5.5" height="1.5" rx="0.5"/><rect x="16.5" y="15" width="3.5" height="1.5" rx="0.5"/></g></svg>
