<svg xmlns="http://www.w3.org/2000/svg" viewBox="0 0 24 24"><defs><radialGradient id="g" cx="35%" cy="28%" r="65%"><stop offset="0%" stop-color="#70FF88"/><stop offset="100%" stop-color="#006622"/></radialGradient></defs><rect fill="url(#g)" x="2" y="2" width="20" height="20" rx="1"/><rect x="2.5" y="2.5" width="19" height="5" rx="1" fill="white" opacity="0.2"/><rect fill="#003311" x="6" y="6" width="8" height="8" rx="1"/><rect fill="#FFE040" opacity="0.7" x="8" y="8" width="4" height="4" rx="0.5"/><g stroke="#003311" stroke-width="0.8" fill="none"><line x1="14" y1="8" x2="18" y2="8"/><line x1="14" y1="10" x2="20" y2="10"/><line x1="14" y1="12" x2="18" y2="12"/><line x1="10" y1="14" x2="10" y2="18"/><line x1="8" y1="14" x2="8" y2="20"/></g><rect fill="#556070" x="16" y="15" width="5" height="6" rx="0.5"/><g fill="#FFE040" opacity="0.5"><circle cx="4" cy="4" r="0.8"/><circle cx="20" cy="4" r="0.8"/><circle cx="4" cy="20" r="0.8"/><circle cx="20" cy="20" r="0.8"/></g></svg>
