<svg xmlns="http://www.w3.org/2000/svg" viewBox="0 0 24 24"><defs><radialGradient id="g" cx="35%" cy="28%" r="65%"><stop offset="0%" stop-color="#70FF88"/><stop offset="100%" stop-color="#006622"/></radialGradient></defs><rect fill="url(#g)" x="1" y="6" width="22" height="11" rx="1"/><rect x="1.5" y="6.5" width="21" height="3.5" rx="1" fill="white" opacity="0.25"/><g fill="#003311"><rect x="3" y="8" width="2.5" height="6" rx="0.5"/><rect x="7" y="8" width="2.5" height="6" rx="0.5"/><rect x="11" y="8" width="2.5" height="6" rx="0.5"/><rect x="15" y="8" width="2.5" height="6" rx="0.5"/><rect x="19" y="8" width="2.5" height="6" rx="0.5"/></g><g fill="url(#g)"><rect x="4" y="17" width="1.5" height="3"/><rect x="7.5" y="17" width="1.5" height="3"/><rect x="11" y="17" width="1.5" height="3"/><rect x="14.5" y="17" width="1.5" height="3"/><rect x="18" y="17" width="1.5" height="3"/></g><rect fill="#FFE040" x="3" y="4" width="4" height="2" rx="0.5"/></svg>
