<svg xmlns="http://www.w3.org/2000/svg" viewBox="0 0 16 16">
  <defs>
    <linearGradient id="stBase" x1="0" y1="0" x2="0" y2="1"><stop offset="0%" stop-color="#B0BEC5"/><stop offset="100%" stop-color="#37474F"/></linearGradient>
    <linearGradient id="stGloss" x1="0" y1="0" x2="0" y2="1"><stop offset="0%" stop-color="#FFF" stop-opacity="0.7"/><stop offset="100%" stop-color="#FFF" stop-opacity="0"/></linearGradient>
  </defs>
  <path d="M8 1 L9.3 2.3 L11 2 L11.5 3.7 L13 4.5 L12.8 6.3 L14 8 L12.8 9.7 L13 11.5 L11.5 12.3 L11 14 L9.3 13.7 L8 15 L6.7 13.7 L5 14 L4.5 12.3 L3 11.5 L3.2 9.7 L2 8 L3.2 6.3 L3 4.5 L4.5 3.7 L5 2 L6.7 2.3 Z"
        fill="url(#stBase)" stroke="#0A1418" stroke-width="0.5" stroke-linejoin="round"/>
  <circle cx="8" cy="8" r="3" fill="#263238" stroke="#0A1418" stroke-width="0.4"/>
  <circle cx="8" cy="8" r="1.3" fill="#FFEB3B"/>
  <ellipse cx="6" cy="3.5" rx="3" ry="1" fill="url(#stGloss)"/>
</svg>
